# xmcd
#
# Track frame offsets: 
#        150
#        12014
#        24432
#        36351
#        47488
#        57297
#        68980
#        82418
#        94295
#        106147
#        119462
#        131471
#        142181
#        152949
#        163122
#        172713
#        183708
#        196060
#        209150
#        219892
#
# Disc length: 3056 seconds
#
# Revision: 0
# Processed by: cddbd v1.5.2PL0 Copyright (c) Steve Scherf et al.
# Submitted via: ExactAudioCopy v0.95b3
#
DISCID=210bee14
DTITLE=The Platters  - Only You  FLAC
DYEAR=1900
DGENRE=
TTITLE0=Only You
TTITLE1=My Prayer
TTITLE2=The Great Pretender
TTITLE3=The Magic Touch
TTITLE4=Crying In The Chapel
TTITLE5=Sixteen Tons
TTITLE6=Love All Night
TTITLE7=Maggie Doesn't Work Here Anymore
TTITLE8=Heaven On Hearth
TTITLE9=I'm Sorry
TTITLE10=You'll Never Never Know
TTITLE11=Tell The World
TTITLE12=He's Mine
TTITLE13=I'm Just A Dancing Partner
TTITLE14=Winner Takes All
TTITLE15=It Isn't Right
TTITLE16=On My Word Of Honour
TTITLE17=One In A Million
TTITLE18=Take Me Back
TTITLE19=Roses Of Picardy
EXTD=
EXTT0=
EXTT1=
EXTT2=
EXTT3=
EXTT4=
EXTT5=
EXTT6=
EXTT7=
EXTT8=
EXTT9=
EXTT10=
EXTT11=
EXTT12=
EXTT13=
EXTT14=
EXTT15=
EXTT16=
EXTT17=
EXTT18=
EXTT19=
PLAYORDER=
